<svg width="168" height="27" viewBox="0 0 168 27" fill="none" xmlns="http://www.w3.org/2000/svg">
<path d="M12.7775 2.96488C13.0782 2.04645 14.3774 2.04645 14.6782 2.96488L16.4397 8.34462C16.5742 8.75554 16.9577 9.03343 17.39 9.03343H23.074C24.0446 9.03343 24.4461 10.277 23.6588 10.8446L19.0737 14.1502C18.7205 14.4049 18.5727 14.8588 18.7082 15.2726L20.4626 20.6307C20.7639 21.5507 19.7127 22.3192 18.9275 21.7531L14.3126 18.426C13.9634 18.1742 13.4922 18.1742 13.143 18.426L8.52812 21.7531C7.7429 22.3192 6.69173 21.5507 6.99296 20.6307L8.74743 15.2726C8.88293 14.8588 8.73509 14.4049 8.3819 14.1502L3.79683 10.8446C3.00951 10.277 3.41105 9.03343 4.38164 9.03343H10.0656C10.498 9.03343 10.8814 8.75554 11.0159 8.34462L12.7775 2.96488Z" fill="#070707"/>
<path d="M48.0025 2.96488C48.3033 2.04645 49.6025 2.04645 49.9032 2.96488L51.6648 8.34462C51.7993 8.75554 52.1827 9.03343 52.6151 9.03343H58.2991C59.2697 9.03343 59.6712 10.277 58.8839 10.8446L54.2988 14.1502C53.9456 14.4049 53.7978 14.8588 53.9333 15.2726L55.6877 20.6307C55.989 21.5507 54.9378 22.3192 54.1526 21.7531L49.5377 18.426C49.1885 18.1742 48.7173 18.1742 48.3681 18.426L43.7532 21.7531C42.968 22.3192 41.9168 21.5507 42.2181 20.6307L43.9725 15.2726C44.108 14.8588 43.9602 14.4049 43.607 14.1502L39.0219 10.8446C38.2346 10.277 38.6361 9.03343 39.6067 9.03343H45.2907C45.7231 9.03343 46.1065 8.75554 46.241 8.34462L48.0025 2.96488Z" fill="#070707"/>
<path d="M83.2272 2.96488C83.5279 2.04645 84.8271 2.04645 85.1279 2.96488L86.8894 8.34462C87.0239 8.75554 87.4074 9.03343 87.8397 9.03343H93.5237C94.4943 9.03343 94.8958 10.277 94.1085 10.8446L89.5234 14.1502C89.1702 14.4049 89.0224 14.8588 89.1579 15.2726L90.9123 20.6307C91.2136 21.5507 90.1624 22.3192 89.3772 21.7531L84.7623 18.426C84.4131 18.1742 83.9419 18.1742 83.5927 18.426L78.9778 21.7531C78.1926 22.3192 77.1414 21.5507 77.4427 20.6307L79.1971 15.2726C79.3326 14.8588 79.1848 14.4049 78.8316 14.1502L74.2465 10.8446C73.4592 10.277 73.8608 9.03343 74.8313 9.03343H80.5153C80.9477 9.03343 81.3311 8.75554 81.4656 8.34462L83.2272 2.96488Z" fill="#070707"/>
<path d="M118.452 2.96488C118.753 2.04645 120.052 2.04645 120.353 2.96488L122.114 8.34462C122.249 8.75554 122.632 9.03343 123.065 9.03343H128.749C129.719 9.03343 130.121 10.277 129.334 10.8446L124.749 14.1502C124.395 14.4049 124.247 14.8588 124.383 15.2726L126.137 20.6307C126.439 21.5507 125.388 22.3192 124.602 21.7531L119.987 18.426C119.638 18.1742 119.167 18.1742 118.818 18.426L114.203 21.7531C113.418 22.3192 112.367 21.5507 112.668 20.6307L114.422 15.2726C114.558 14.8588 114.41 14.4049 114.057 14.1502L109.472 10.8446C108.684 10.277 109.086 9.03343 110.056 9.03343H115.74C116.173 9.03343 116.556 8.75554 116.691 8.34462L118.452 2.96488Z" fill="#E5E5E5"/>
<path d="M153.677 2.96488C153.978 2.04645 155.277 2.04645 155.578 2.96488L157.339 8.34462C157.474 8.75554 157.857 9.03343 158.289 9.03343H163.973C164.944 9.03343 165.346 10.277 164.558 10.8446L159.973 14.1502C159.62 14.4049 159.472 14.8588 159.608 15.2726L161.362 20.6307C161.663 21.5507 160.612 22.3192 159.827 21.7531L155.212 18.426C154.863 18.1742 154.392 18.1742 154.042 18.426L149.428 21.7531C148.642 22.3192 147.591 21.5507 147.892 20.6307L149.647 15.2726C149.782 14.8588 149.635 14.4049 149.281 14.1502L144.696 10.8446C143.909 10.277 144.31 9.03343 145.281 9.03343H150.965C151.397 9.03343 151.781 8.75554 151.915 8.34462L153.677 2.96488Z" fill="#E5E5E5"/>
</svg>
