<svg width="168" height="27" viewBox="0 0 168 27" fill="none" xmlns="http://www.w3.org/2000/svg">
<path d="M12.1331 3.03657C12.4338 2.11798 13.7333 2.11799 14.0339 3.03657L15.7955 8.41871C15.93 8.82969 16.3134 9.10765 16.7458 9.10765L22.4308 9.10765C23.4013 9.10765 23.8029 10.351 23.0158 10.9187L18.4291 14.2269C18.0761 14.4815 17.9283 14.9353 18.0637 15.349L19.8186 20.7108C20.1197 21.6308 19.0684 22.3992 18.2832 21.8329L13.6685 18.5044C13.3192 18.2525 12.8478 18.2525 12.4985 18.5044L7.8838 21.8329C7.09866 22.3992 6.0473 21.6308 6.34842 20.7108L8.10332 15.349C8.23872 14.9353 8.09095 14.4815 7.73791 14.2269L3.15128 10.9187C2.36417 10.351 2.76577 9.10765 3.73626 9.10765L9.42118 9.10765C9.85361 9.10765 10.2371 8.82969 10.3716 8.41871L12.1331 3.03657Z" fill="#070707"/>
<path d="M47.3582 3.03657C47.6589 2.11798 48.9584 2.11799 49.259 3.03657L51.0206 8.41871C51.1551 8.82969 51.5385 9.10765 51.9709 9.10765L57.6559 9.10765C58.6264 9.10765 59.028 10.351 58.2408 10.9187L53.6542 14.2269C53.3012 14.4815 53.1534 14.9353 53.2888 15.349L55.0437 20.7108C55.3448 21.6308 54.2935 22.3992 53.5083 21.8329L48.8936 18.5044C48.5443 18.2525 48.0729 18.2525 47.7236 18.5044L43.1089 21.8329C42.3238 22.3992 41.2724 21.6308 41.5735 20.7108L43.3284 15.349C43.4638 14.9353 43.316 14.4815 42.963 14.2269L38.3764 10.9187C37.5893 10.351 37.9909 9.10765 38.9614 9.10765L44.6463 9.10765C45.0787 9.10765 45.4622 8.82969 45.5967 8.41871L47.3582 3.03657Z" fill="#070707"/>
<path d="M82.5823 3.03657C82.883 2.11798 84.1825 2.11799 84.4831 3.03657L86.2447 8.41871C86.3792 8.82969 86.7626 9.10765 87.1951 9.10765L92.88 9.10765C93.8505 9.10765 94.2521 10.351 93.465 10.9187L88.8783 14.2269C88.5253 14.4815 88.3775 14.9353 88.5129 15.349L90.2678 20.7108C90.5689 21.6308 89.5176 22.3992 88.7325 21.8329L84.1177 18.5044C83.7684 18.2525 83.2971 18.2525 82.9478 18.5044L78.333 21.8329C77.5479 22.3992 76.4965 21.6308 76.7976 20.7108L78.5525 15.349C78.6879 14.9353 78.5402 14.4815 78.1871 14.2269L73.6005 10.9187C72.8134 10.351 73.215 9.10765 74.1855 9.10765L79.8704 9.10765C80.3028 9.10765 80.6863 8.82969 80.8208 8.41871L82.5823 3.03657Z" fill="#070707"/>
<path d="M117.807 3.03657C118.108 2.11798 119.408 2.11799 119.708 3.03657L121.47 8.41871C121.604 8.82969 121.988 9.10765 122.42 9.10765L128.105 9.10765C129.076 9.10765 129.477 10.351 128.69 10.9187L124.103 14.2269C123.75 14.4815 123.603 14.9353 123.738 15.349L125.493 20.7108C125.794 21.6308 124.743 22.3992 123.958 21.8329L119.343 18.5044C118.994 18.2525 118.522 18.2525 118.173 18.5044L113.558 21.8329C112.773 22.3992 111.722 21.6308 112.023 20.7108L113.778 15.349C113.913 14.9353 113.765 14.4815 113.412 14.2269L108.826 10.9187C108.038 10.351 108.44 9.10765 109.411 9.10765L115.095 9.10765C115.528 9.10765 115.911 8.82969 116.046 8.41871L117.807 3.03657Z" fill="#070707"/>
<path d="M153.033 3.03657C153.333 2.11798 154.633 2.11799 154.933 3.03657L156.695 8.41871C156.829 8.82969 157.213 9.10765 157.645 9.10765L163.33 9.10765C164.301 9.10765 164.702 10.351 163.915 10.9187L159.329 14.2269C158.975 14.4815 158.828 14.9353 158.963 15.349L160.718 20.7108C161.019 21.6308 159.968 22.3992 159.183 21.8329L154.568 18.5044C154.219 18.2525 153.747 18.2525 153.398 18.5044L148.783 21.8329C147.998 22.3992 146.947 21.6308 147.248 20.7108L149.003 15.349C149.138 14.9353 148.99 14.4815 148.637 14.2269L144.051 10.9187C143.264 10.351 143.665 9.10765 144.636 9.10765L150.321 9.10765C150.753 9.10765 151.136 8.82969 151.271 8.41871L153.033 3.03657Z" fill="#E5E5E5"/>
</svg>
