<svg width="91" height="86" viewBox="0 0 91 86" fill="none" xmlns="http://www.w3.org/2000/svg">
<path d="M4.38623 3.67578H86.4442V81.7463H4.38623V3.67578Z" fill="url(#paint0_radial_167_586)"/>
<path d="M4.38632 3.67598H86.4443V81.7465H4.38632V3.67598ZM0.657227 85.3932H90.1913V0.0292969H0.657227V85.3932ZM63.998 41.1772C65.8984 41.1772 66.5797 41.1772 66.759 41.1071C66.759 40.8441 66.8307 40.6688 66.8307 40.4934C66.8307 38.5298 65.8626 34.8832 61.9901 34.8832C58.4044 34.8832 56.8805 37.9513 56.504 41.1947H63.998V41.1772ZM56.4323 46.1738C56.504 51.1004 58.8885 54.4139 64.5717 54.4139C66.7769 54.4139 68.6773 54.1159 70.6494 53.2919C70.9184 53.1867 71.0976 53.2218 71.0976 53.5549V58.1132C71.0976 58.4814 70.9901 58.6567 70.7212 58.8496C68.749 59.7963 66.2749 60.2346 63.2271 60.2346C53.3845 60.2346 49.6912 53.1166 49.6912 45.2096C49.6912 36.6013 54.245 29.5534 62.259 29.5534C70.3984 29.5534 73.2311 36.2331 73.2311 41.6681C73.2311 43.4213 73.1236 44.8414 72.9263 45.5427C72.8546 45.8407 72.7471 45.9459 72.4423 46.0161C71.6893 46.1212 69.502 46.279 66.2211 46.279H56.4502V46.1738H56.4323ZM36.4243 42.457C35.3844 38.4071 32.8386 29.5885 31.9063 25.3106H31.8346C31.0458 29.5709 29.0019 36.7942 27.478 42.457H36.4243ZM25.9541 48.3654L23.0139 59.2703C22.9421 59.5684 22.8346 59.6736 22.4581 59.6736H16.9541C16.5776 59.6736 16.5059 59.5684 16.5776 59.1301L27.1732 22.9087C27.3525 22.26 27.478 21.7341 27.5497 19.9107C27.5497 19.6477 27.6573 19.5426 27.8545 19.5426H35.6892C35.9581 19.5426 36.0657 19.6127 36.1374 19.9107L47.988 59.2002C48.0597 59.4983 47.988 59.6736 47.6832 59.6736H41.5338C41.229 59.6736 41.0498 59.5684 40.978 59.3054L37.9123 48.3654H25.9541Z" fill="#D8A1FF"/>
<defs>
<radialGradient id="paint0_radial_167_586" cx="0" cy="0" r="1" gradientUnits="userSpaceOnUse" gradientTransform="translate(31.4368 21.1791) scale(62.3667 59.0479)">
<stop stop-color="#442F55" stop-opacity="0.98"/>
<stop offset="1" stop-color="#12002C"/>
</radialGradient>
</defs>
</svg>
