<svg width="91" height="86" viewBox="0 0 91 86" fill="none" xmlns="http://www.w3.org/2000/svg">
<path d="M4.38428 3.67578H86.4422V81.7463H4.38428V3.67578Z" fill="url(#paint0_radial_167_573)"/>
<path d="M4.38436 3.67598H86.4423V81.7465H4.38436V3.67598ZM0.655273 85.3932H90.1893V0.0292969H0.655273V85.3932ZM59.2988 30.4651C59.2988 30.167 59.4064 30.0268 59.747 30.0268H65.6096C65.9144 30.0268 66.0578 30.132 66.0578 30.4651V59.2528C66.0578 59.5509 65.9861 59.6911 65.6096 59.6911H59.8187C59.4422 59.6911 59.3347 59.5158 59.3347 59.2177V30.4651H59.2988ZM58.8865 22.1724C58.8865 19.8406 60.5717 18.4556 62.6873 18.4556C64.9642 18.4556 66.4881 19.9458 66.4881 22.1724C66.4881 24.5743 64.8924 25.8892 62.6156 25.8892C60.4642 25.9067 58.8865 24.5918 58.8865 22.1724ZM42.1056 42.457C41.0657 38.4071 38.5916 29.5885 37.6593 25.3106H37.5876C36.7988 29.5709 34.8267 36.7942 33.2669 42.457H42.1056ZM31.743 48.3654L28.8027 59.3054C28.731 59.6035 28.6235 59.6736 28.247 59.6736H22.7609C22.3844 59.6736 22.3127 59.5684 22.3844 59.1301L32.98 22.8737C33.1593 22.225 33.2848 21.6289 33.3565 19.8406C33.3565 19.5776 33.4641 19.4724 33.6613 19.4724H41.496C41.7649 19.4724 41.8725 19.5426 41.9442 19.8406L53.8127 59.2002C53.8845 59.4983 53.8127 59.6736 53.508 59.6736H47.3227C47.0179 59.6736 46.8386 59.6035 46.7669 59.3405L43.7012 48.3654H31.743Z" fill="#FF7F18"/>
<defs>
<radialGradient id="paint0_radial_167_573" cx="0" cy="0" r="1" gradientUnits="userSpaceOnUse" gradientTransform="translate(31.4369 21.1946) scale(62.3667 59.0479)">
<stop stop-color="#423325" stop-opacity="0.98"/>
<stop offset="1" stop-color="#1C0A00"/>
</radialGradient>
</defs>
</svg>
