<svg width="39" height="40" viewBox="0 0 39 40" fill="none" xmlns="http://www.w3.org/2000/svg">
<path d="M30.2264 7.05151L30.535 6.66596L30.1533 6.35263C27.2501 3.96926 23.5633 2.54591 19.5302 2.54591C18.1172 2.54591 16.7472 2.74273 15.45 3.06516L14.7194 3.24678L15.1702 3.84978C16.5547 5.70176 18.5436 8.49876 20.9256 12.8794L21.1322 13.2594L21.538 13.1096C26.0459 11.4453 28.7474 8.89952 30.2264 7.05151ZM13.0008 4.31304L12.7561 3.99257L12.3911 4.16377C7.91414 6.26341 4.52125 10.2744 3.1818 15.1739L3.01455 15.7856L3.64846 15.8055C6.11363 15.8826 12.0063 15.7671 18.5356 14.028L19.1568 13.8625L18.8435 13.3011C16.3109 8.76311 14.181 5.85878 13.0008 4.31304ZM32.3706 8.52912L31.9838 8.07223L31.6031 8.53421C29.9547 10.5346 27.0922 13.1334 22.5595 14.8968L22.0507 15.0948L22.2925 15.5843C23.2698 17.5623 24.2177 19.67 25.0815 21.9462L25.2248 22.3237L25.624 22.2631C28.9029 21.7653 31.9339 21.7652 34.2234 21.9435C34.7803 21.9895 35.1396 22.041 35.5578 22.1011C35.6459 22.1137 35.7365 22.1268 35.8322 22.1402L36.3436 22.2119L36.3988 21.6985C36.466 21.074 36.5046 20.4468 36.5046 19.7984C36.5046 15.4865 34.9333 11.5563 32.3706 8.52912ZM20.2766 16.081L20.0914 15.7117L19.6938 15.824C12.0137 17.9933 5.24823 17.9271 3.14124 17.8425L2.65973 17.8232L2.62267 18.3037L2.62009 18.337C2.58369 18.8087 2.5463 19.2931 2.5463 19.8079C2.5463 24.9917 4.80204 29.6185 8.35825 32.7839L8.72987 33.1147L9.0625 32.7447C9.95371 31.7535 11.149 30.4911 12.6023 29.1733L12.6042 29.1715C15.3384 26.6654 18.8564 24.0137 22.6888 22.8566L23.2077 22.6999L23.0097 22.1953C22.1517 20.0095 21.2281 17.9777 20.2766 16.081ZM29.7239 23.8962L29.7185 23.8964C28.7118 23.9447 27.6401 24.0412 26.5503 24.1858L25.954 24.2649L26.1408 24.8367C27.0604 27.6517 27.8212 30.6337 28.3126 33.7356L28.437 34.5212L29.091 34.0684C32.2637 31.8718 34.6643 28.6071 35.7826 24.7739L35.9491 24.2032L35.3584 24.1369C33.9046 23.9738 32.0614 23.8092 29.7239 23.8962ZM24.094 25.0722L23.9401 24.6206L23.4818 24.7532C20.1149 25.7271 16.5931 28.2529 13.924 30.6887C12.6342 31.8557 11.5926 32.9633 10.7567 33.8706L10.3404 34.3225L10.8674 34.6383C13.4022 36.1574 16.3454 37.0509 19.5208 37.0509C21.904 37.0509 24.152 36.5504 26.205 35.6682L26.5544 35.5181L26.503 35.1413C26.0208 31.6028 25.1701 28.2303 24.094 25.0722ZM0.560303 19.7984C0.560303 9.15848 9.08701 0.5 19.5302 0.5C29.9733 0.5 38.5 9.15848 38.5 19.7984C38.5 30.4384 29.9733 39.0969 19.5302 39.0969C9.08701 39.0969 0.560303 30.4384 0.560303 19.7984Z" fill="#070707" stroke="#070707"/>
</svg>
