<svg width="41" height="40" viewBox="0 0 41 40" fill="none" xmlns="http://www.w3.org/2000/svg">
<g clip-path="url(#clip0_167_538)">
<path d="M34.3059 0.214844H6.06833C2.84243 0.214844 0.218018 2.81696 0.218018 6.01545V34.013C0.218018 37.2115 2.84243 39.8136 6.06833 39.8136H34.3059C37.5318 39.8136 40.1562 37.2115 40.1562 34.013V6.01545C40.1562 2.81696 37.5318 0.214844 34.3059 0.214844ZM37.8161 34.013C37.8161 35.9321 36.2413 37.4934 34.3059 37.4934H6.06833C4.13285 37.4934 2.55814 35.9321 2.55814 34.013V6.01545C2.55814 4.09642 4.13285 2.53509 6.06833 2.53509H34.3059C36.2413 2.53509 37.8161 4.09642 37.8161 6.01545V34.013Z" fill="#070707" stroke="#070707" stroke-width="0.5"/>
<path d="M19.017 16.534C19.017 13.9751 16.9176 11.8936 14.3368 11.8936H7.31641V28.1352H14.3368C16.9176 28.1352 19.017 26.0537 19.017 23.4948C19.017 22.1099 18.4012 20.8655 17.4274 20.0144C18.4012 19.1633 19.017 17.9189 19.017 16.534ZM16.6769 23.4948C16.6769 24.7742 15.6272 25.815 14.3368 25.815H9.65653V21.1745H14.3368C15.6272 21.1745 16.6769 22.2153 16.6769 23.4948ZM9.65653 18.8543V14.2138H14.3368C15.6272 14.2138 16.6769 15.2546 16.6769 16.534C16.6769 17.8135 15.6272 18.8543 14.3368 18.8543H9.65653Z" fill="#070707" stroke="#070707" stroke-width="0.5"/>
<path d="M27.2075 16.5342C23.9816 16.5342 21.3572 19.1363 21.3572 22.3348C21.3572 25.5333 23.9816 28.1354 27.2075 28.1354C29.2895 28.1354 31.2311 27.0245 32.2744 25.236L30.2487 24.0741C29.6223 25.1481 28.4568 25.8151 27.2075 25.8151C25.6818 25.8151 24.3808 24.8454 23.8978 23.4949H33.0578V22.3348C33.0578 19.1363 30.4334 16.5342 27.2075 16.5342ZM23.8978 21.1747C24.3808 19.8242 25.6818 18.8544 27.2075 18.8544C28.7331 18.8544 30.0342 19.8242 30.5172 21.1747H23.8978Z" fill="#070707" stroke="#070707" stroke-width="0.5"/>
<path d="M22.5273 11.8936H31.8878V14.2138H22.5273V11.8936Z" fill="#070707" stroke="#070707" stroke-width="0.5"/>
</g>
<defs>
<clipPath id="clip0_167_538">
<rect width="39.9382" height="39.5988" fill="white" transform="translate(0.218018 0.214844)"/>
</clipPath>
</defs>
</svg>
