<svg width="60" height="86" viewBox="0 0 60 86" fill="none" xmlns="http://www.w3.org/2000/svg">
<g clip-path="url(#clip0_167_598)">
<path d="M15.4043 85.812C23.4721 85.812 30.0159 79.4131 30.0159 71.5241V57.2363H15.4043C7.33658 57.2363 0.792725 63.6352 0.792725 71.5241C0.792725 79.4131 7.33658 85.812 15.4043 85.812Z" fill="#0ACF83"/>
<path d="M0.792725 42.9304C0.792725 35.0414 7.33658 28.6426 15.4043 28.6426H30.0159V57.2358H15.4043C7.33658 57.2182 0.792725 50.8194 0.792725 42.9304Z" fill="#A259FF"/>
<path d="M0.792725 14.3366C0.792725 6.44767 7.33658 0.0488281 15.4043 0.0488281H30.0159V28.642H15.4043C7.33658 28.642 0.792725 22.2256 0.792725 14.3366Z" fill="#F24E1E"/>
<path d="M30.0339 0.0488281H44.6455C52.7133 0.0488281 59.2572 6.44767 59.2572 14.3366C59.2572 22.2256 52.7133 28.6245 44.6455 28.6245H30.0339V0.0488281Z" fill="#FF7262"/>
<path d="M59.2572 42.9304C59.2572 50.8194 52.7133 57.2182 44.6455 57.2182C36.5778 57.2182 30.0339 50.8194 30.0339 42.9304C30.0339 35.0414 36.5778 28.6426 44.6455 28.6426C52.7133 28.6426 59.2572 35.0414 59.2572 42.9304Z" fill="#1ABCFE"/>
</g>
<defs>
<clipPath id="clip0_167_598">
<rect width="58.4644" height="85.7644" fill="white" transform="translate(0.792725 0.0488281)"/>
</clipPath>
</defs>
</svg>
