<svg width="40" height="40" viewBox="0 0 40 40" fill="none" xmlns="http://www.w3.org/2000/svg">
<path d="M11.6783 0.509514H12.1783V0.5H28.0124C33.9527 0.5 38.8106 5.43508 38.8106 11.4956V28.1013C38.8106 34.162 33.9525 39.0969 28.0218 39.0969H11.6783C5.73669 39.0969 0.87085 34.1699 0.87085 28.1203V11.5051C0.87085 5.44514 5.73749 0.509514 11.6783 0.509514ZM2.86621 11.5136V11.5146V28.1299C2.86621 33.0714 6.78046 37.0612 11.6783 37.0612H28.0218C32.9024 37.0612 36.8152 33.0699 36.8152 28.1108V11.5051C36.8152 6.54562 32.902 2.5547 28.0124 2.5547H11.6783C6.78819 2.5547 2.8761 6.54595 2.86621 11.5136ZM30.8338 7.62247C30.8338 7.04386 31.2823 6.59988 31.8315 6.59988C32.3807 6.59988 32.8292 7.04387 32.8292 7.62247C32.8292 8.20108 32.3807 8.64506 31.8315 8.64506C31.2823 8.64506 30.8338 8.20108 30.8338 7.62247ZM9.8663 19.8032C9.8663 14.2096 14.3679 9.64506 19.8501 9.64506C25.3322 9.64506 29.8338 14.2096 29.8338 19.8032C29.8338 25.3968 25.3322 29.9613 19.8501 29.9613C14.3679 29.9613 9.8663 25.3968 9.8663 19.8032ZM27.8385 19.8032C27.8385 15.3097 24.29 11.6902 19.8501 11.6902C15.4101 11.6902 11.8617 15.3097 11.8617 19.8032C11.8617 24.2967 15.4101 27.9161 19.8501 27.9161C24.29 27.9161 27.8385 24.2967 27.8385 19.8032Z" fill="#070707" stroke="#070707"/>
</svg>
