<svg width="91" height="86" viewBox="0 0 91 86" fill="none" xmlns="http://www.w3.org/2000/svg">
<path d="M4.37988 3.64844H86.3424V81.6081H4.37988V3.64844Z" fill="url(#paint0_radial_167_561)"/>
<path d="M4.3797 3.64395H86.3422V81.6035H4.3797V3.64395ZM0.65332 85.2475H90.0506V0H0.65332V85.2475ZM60.9383 34.9854C58.0002 34.9854 56.9969 36.4395 56.9969 37.6483C56.9969 38.9623 57.6598 39.8732 61.6191 41.8704C67.4594 44.6384 69.2868 47.3013 69.2868 51.1905C69.2868 57.0244 64.7363 60.1602 58.5914 60.1602C55.3487 60.1602 52.5539 59.5121 50.9595 58.6011C50.6907 58.4959 50.6549 58.3032 50.6549 58.0229V52.6446C50.6549 52.2767 50.8341 52.1716 51.1028 52.3468C53.4497 53.8359 56.137 54.5016 58.5914 54.5016C61.5295 54.5016 62.7657 53.2928 62.7657 51.6635C62.7657 50.3496 61.9057 49.1934 58.1435 47.2838C52.8585 44.8136 50.6549 42.3084 50.6549 38.1038C50.6549 33.4087 54.4171 29.502 60.9383 29.502C64.1451 29.502 66.3845 29.975 67.6028 30.5181C67.9073 30.6933 67.979 30.9911 67.979 31.2539V36.2468C67.979 36.5446 67.7999 36.7198 67.4236 36.6147C65.7754 35.5986 63.3569 34.9854 60.9383 34.9854ZM28.9057 39.3126C29.7657 39.3827 30.4285 39.3827 31.9155 39.3827C36.2689 39.3827 40.3715 37.8936 40.3715 32.0948C40.3715 27.4698 37.4334 25.1398 32.4709 25.1398C30.9839 25.1398 29.5686 25.2098 28.8878 25.2449L28.9057 39.3126ZM22.2592 19.9717C22.2592 19.7089 22.7787 19.5337 23.0833 19.5337C25.466 19.4286 29.0132 19.3585 32.6859 19.3585C43.0051 19.3585 47.036 24.8945 47.036 31.9547C47.036 41.2047 40.1745 45.1815 31.7543 45.1815C30.339 45.1815 29.8553 45.1114 28.852 45.1114V59.0916C28.852 59.3894 28.7445 59.5296 28.4041 59.5296H22.707C22.4025 59.5296 22.2592 59.4244 22.2592 59.0916V19.9717Z" fill="#31C5F0"/>
<defs>
<radialGradient id="paint0_radial_167_561" cx="0" cy="0" r="1" gradientUnits="userSpaceOnUse" gradientTransform="translate(31.3822 21.1388) scale(62.2823 58.9668)">
<stop stop-color="#34364E" stop-opacity="0.98"/>
<stop offset="1" stop-color="#0C0824"/>
</radialGradient>
</defs>
</svg>
